<?xml version="1.0" standalone="no"?>
<!DOCTYPE svg PUBLIC "-//W3C//DTD SVG 20010904//EN"
 "http://www.w3.org/TR/2001/REC-SVG-20010904/DTD/svg10.dtd">
<svg version="1.0" xmlns="http://www.w3.org/2000/svg"
 width="70.000000pt" height="70.000000pt" viewBox="0 0 70.000000 70.000000"
 preserveAspectRatio="xMidYMid meet">
<metadata>
Created by potrace 1.11, written by Peter Selinger 2001-2013
</metadata>
<g transform="translate(0.000000,70.000000) scale(0.100000,-0.100000)"
fill="#000000" stroke="none">
<path d="M522 669 c3 -21 -1 -43 -10 -57 -12 -18 -13 -25 -3 -31 8 -5 10 -21
5 -49 l-7 -42 -58 0 -59 0 0 50 c0 32 7 61 20 82 22 36 25 48 11 48 -5 0 -12
-11 -15 -25 -9 -36 -24 -31 -22 8 1 22 -3 32 -14 32 -11 0 -14 -9 -12 -32 2
-37 -3 -40 -30 -16 -15 14 -18 14 -18 1 0 -8 9 -23 20 -33 12 -11 20 -31 20
-51 0 -62 -4 -64 -100 -64 l-88 0 -12 35 c-14 41 -50 69 -79 60 -18 -5 -51
-60 -51 -84 0 -6 -4 -11 -10 -11 -13 0 -13 -47 0 -55 6 -4 10 -58 10 -131 0
-76 4 -124 10 -124 6 0 10 50 10 130 l0 130 30 0 c17 0 30 -1 30 -3 0 -1 -9
-20 -20 -42 -23 -46 -26 -102 -6 -150 12 -29 41 -55 60 -55 3 0 6 54 6 119 0
69 4 122 10 126 6 4 10 -23 10 -74 0 -74 2 -81 20 -81 16 0 20 7 20 33 0 38
13 62 29 53 7 -5 11 -42 11 -97 0 -53 4 -89 10 -89 6 0 10 40 10 99 0 82 -3
103 -19 122 -16 20 -21 21 -35 10 -14 -12 -16 -11 -16 8 0 18 6 21 48 21 l48
0 0 -42 c0 -24 4 -65 9 -91 5 -33 4 -55 -4 -71 -7 -13 -11 -34 -9 -47 3 -23 4
-23 21 8 18 33 22 116 8 163 -8 27 5 80 20 80 4 0 10 -57 11 -127 2 -90 7
-128 16 -131 9 -3 12 27 12 127 l0 131 50 0 c45 0 50 -2 50 -22 0 -17 -3 -19
-9 -10 -4 8 -19 12 -32 10 -50 -7 -62 -136 -18 -192 27 -35 39 -33 39 6 0 17
-3 28 -7 25 -14 -15 -33 18 -33 60 0 31 5 45 16 50 29 11 44 -25 44 -103 0
-40 5 -76 10 -79 6 -4 10 38 10 120 0 104 3 127 15 132 22 8 26 1 16 -33 -9
-32 7 -99 24 -99 6 0 11 10 13 23 2 12 -1 22 -7 22 -13 0 -15 37 -2 44 15 10
33 -22 39 -69 3 -29 9 -45 18 -45 8 0 14 9 14 19 0 11 5 32 11 48 10 27 11 27
25 9 9 -13 14 -46 14 -98 0 -45 4 -78 10 -78 17 0 12 176 -5 210 -17 34 -39
39 -54 13 -9 -15 -10 -14 -11 10 0 26 2 27 46 27 41 0 45 2 42 23 -3 19 -10
22 -50 25 -48 3 -53 7 -42 36 5 13 9 14 20 5 11 -9 14 -8 14 4 0 8 3 24 6 34
4 13 3 15 -4 5 -7 -11 -11 -8 -16 13 -4 15 -2 33 4 40 7 8 10 22 7 32 -4 14
-5 14 -6 -4 0 -12 -6 -25 -13 -29 -8 -5 -9 0 -5 15 10 40 -13 70 -27 35 -4 -9
-1 -23 5 -31 13 -15 6 -28 -10 -18 -6 3 -12 18 -12 33 -2 24 -2 24 -6 4 -2
-12 5 -37 15 -55 28 -45 20 -124 -11 -122 -19 1 -21 7 -18 51 2 27 3 58 3 69
-1 11 -3 35 -4 54 -2 19 -9 36 -17 39 -10 3 -12 -3 -9 -29z m-398 -154 l16
-25 -50 0 c-52 0 -54 3 -27 38 15 20 43 14 61 -13z m249 -10 c-3 -9 -8 -14
-10 -11 -3 3 -2 9 2 15 9 16 15 13 8 -4z m-253 -196 c0 -60 -2 -70 -14 -60
-21 18 -28 59 -16 97 18 54 30 40 30 -37z"/>
<path d="M445 677 c-4 -10 -5 -21 -1 -24 10 -10 18 4 13 24 -4 17 -4 17 -12 0z"/>
<path d="M442 621 c-13 -9 -2 -79 13 -85 9 -3 14 9 17 43 3 46 -6 58 -30 42z"/>
<path d="M561 564 c0 -11 3 -14 6 -6 3 7 2 16 -1 19 -3 4 -6 -2 -5 -13z"/>
<path d="M167 143 c94 -2 252 -2 350 0 98 1 21 2 -172 2 -192 1 -273 -1 -178
-2z"/>
<path d="M487 123 c-4 -3 -7 -15 -7 -26 0 -25 13 -14 15 13 2 22 1 23 -8 13z"/>
<path d="M70 71 l1 -26 19 23 c22 27 46 21 31 -7 -10 -19 3 -50 16 -38 4 5 1
12 -6 16 -10 6 -10 10 -1 16 6 4 9 13 6 21 -3 8 -1 14 4 14 5 0 11 -8 13 -17
4 -17 5 -17 6 0 0 9 8 17 17 17 14 0 14 -3 4 -16 -11 -12 -10 -18 3 -32 11
-10 17 -12 17 -4 0 7 -5 12 -10 12 -6 0 -5 8 2 20 12 20 13 19 19 -12 l6 -33
2 38 1 38 -75 -2 c-74 -2 -75 -2 -75 -28z"/>
<path d="M300 90 c-12 -8 -12 -10 -1 -10 10 0 11 -4 3 -13 -7 -8 -6 -18 5 -32
15 -20 15 -19 10 3 -7 31 1 52 22 52 14 0 14 -2 1 -10 -13 -8 -12 -10 3 -10 9
0 17 6 17 13 0 8 4 7 10 -3 6 -10 10 -11 10 -2 0 6 7 12 16 12 13 0 14 -3 4
-15 -9 -11 -8 -19 4 -37 16 -22 16 -22 16 14 0 20 6 39 13 41 6 3 -17 6 -53 6
-36 0 -72 -4 -80 -9z"/>
<path d="M503 85 c-8 -22 6 -33 17 -15 13 20 12 30 0 30 -6 0 -13 -7 -17 -15z"/>
<path d="M545 91 c-3 -6 -1 -11 6 -11 8 0 8 -4 1 -12 -7 -9 -6 -17 4 -25 11
-11 12 -8 9 18 -4 36 -10 45 -20 30z"/>
<path d="M577 83 c4 -11 8 -12 11 -5 2 7 11 12 19 12 12 0 13 -3 3 -15 -9 -11
-8 -19 4 -37 12 -17 16 -19 16 -6 0 9 -6 18 -12 21 -9 3 -5 11 11 26 l24 21
-41 0 c-35 0 -40 -3 -35 -17z"/>
<path d="M275 30 c-3 -5 -1 -10 4 -10 6 0 11 5 11 10 0 6 -2 10 -4 10 -3 0 -8
-4 -11 -10z"/>
</g>
</svg>
